<mxfile host="app.diagrams.net" modified="2021-11-26T10:03:59.784Z" agent="5.0 (Windows NT 10.0; Win64; x64) AppleWebKit/537.36 (KHTML, like Gecko) Chrome/96.0.4664.45 Safari/537.36 Edg/96.0.1054.29" etag="9PqKcZmuyhj1ZVIO6KYN" version="14.8.6" type="github">
  <diagram id="gxEKmvpQRqARJgTIN6Y2" name="Page-1">
    <mxGraphModel dx="1422" dy="834" grid="1" gridSize="10" guides="1" tooltips="1" connect="1" arrows="1" fold="1" page="1" pageScale="1" pageWidth="827" pageHeight="1169" math="0" shadow="0">
      <root>
        <mxCell id="0" />
        <mxCell id="1" parent="0" />
        <mxCell id="zB64F0JVtQfuvRfCj4ic-1" value="" style="shape=image;verticalLabelPosition=bottom;verticalAlign=top;imageAspect=0;aspect=fixed;image=data:image/svg+xml,PHN2ZyB4bWxuczpkYz0iaHR0cDovL3B1cmwub3JnL2RjL2VsZW1lbnRzLzEuMS8iIHhtbG5zOmNjPSJodHRwOi8vY3JlYXRpdmVjb21tb25zLm9yZy9ucyMiIHhtbG5zOnJkZj0iaHR0cDovL3d3dy53My5vcmcvMTk5OS8wMi8yMi1yZGYtc3ludGF4LW5zIyIgeG1sbnM6c3ZnPSJodHRwOi8vd3d3LnczLm9yZy8yMDAwL3N2ZyIgeG1sbnM9Imh0dHA6Ly93d3cudzMub3JnLzIwMDAvc3ZnIiB4bWxuczpzb2RpcG9kaT0iaHR0cDovL3NvZGlwb2RpLnNvdXJjZWZvcmdlLm5ldC9EVEQvc29kaXBvZGktMC5kdGQiIHhtbG5zOmlua3NjYXBlPSJodHRwOi8vd3d3Lmlua3NjYXBlLm9yZy9uYW1lc3BhY2VzL2lua3NjYXBlIiB2ZXJzaW9uPSIxLjEiIGlkPSJMYXllcl8xIiB4PSIwcHgiIHk9IjBweCIgd2lkdGg9IjUwcHgiIGhlaWdodD0iNTBweCIgdmlld0JveD0iMCAwIDUwIDUwIiBlbmFibGUtYmFja2dyb3VuZD0ibmV3IDAgMCA1MCA1MCIgeG1sOnNwYWNlPSJwcmVzZXJ2ZSIgc29kaXBvZGk6ZG9jbmFtZT0iQXBwbGljYXRpb24gR2F0ZXdheS5zdmciIGlua3NjYXBlOnZlcnNpb249IjAuOTIuMyAoMjQwNTU0NiwgMjAxOC0wMy0xMSkiPjxtZXRhZGF0YSBpZD0ibWV0YWRhdGEzOTEyIj48cmRmOlJERj48Y2M6V29yayByZGY6YWJvdXQ9IiI+PGRjOmZvcm1hdD5pbWFnZS9zdmcreG1sPC9kYzpmb3JtYXQ+PGRjOnR5cGUgcmRmOnJlc291cmNlPSJodHRwOi8vcHVybC5vcmcvZGMvZGNtaXR5cGUvU3RpbGxJbWFnZSIvPjxkYzp0aXRsZS8+PC9jYzpXb3JrPjwvcmRmOlJERj48L21ldGFkYXRhPjxkZWZzIGlkPSJkZWZzMzkxMCIvPjxzb2RpcG9kaTpuYW1lZHZpZXcgcGFnZWNvbG9yPSIjZmZmZmZmIiBib3JkZXJjb2xvcj0iIzY2NjY2NiIgYm9yZGVyb3BhY2l0eT0iMSIgb2JqZWN0dG9sZXJhbmNlPSIxMCIgZ3JpZHRvbGVyYW5jZT0iMTAiIGd1aWRldG9sZXJhbmNlPSIxMCIgaW5rc2NhcGU6cGFnZW9wYWNpdHk9IjAiIGlua3NjYXBlOnBhZ2VzaGFkb3c9IjIiIGlua3NjYXBlOndpbmRvdy13aWR0aD0iNjQwIiBpbmtzY2FwZTp3aW5kb3ctaGVpZ2h0PSI0ODAiIGlkPSJuYW1lZHZpZXczOTA4IiBzaG93Z3JpZD0iZmFsc2UiIGlua3NjYXBlOnpvb209IjYuMjYiIGlua3NjYXBlOmN4PSIyNSIgaW5rc2NhcGU6Y3k9IjI1IiBpbmtzY2FwZTp3aW5kb3cteD0iMCIgaW5rc2NhcGU6d2luZG93LXk9IjAiIGlua3NjYXBlOndpbmRvdy1tYXhpbWl6ZWQ9IjEiIGlua3NjYXBlOmN1cnJlbnQtbGF5ZXI9IkxheWVyXzEiLz4mI3hhOzxwYXRoIGZpbGw9IiM3RkJBMDAiIGQ9Ik0yNSw1MGMtMS4yLDAtMi40LTAuNS0zLjMtMS40TDEuNCwyOC4zQzAuNSwyNy40LDAsMjYuMiwwLDI1czAuNS0yLjQsMS40LTMuM0wyMS43LDEuNCAgQzIyLjYsMC41LDIzLjgsMCwyNSwwczIuNCwwLjUsMy4zLDEuNGwyMC40LDIwLjRjMC45LDAuOSwxLjQsMiwxLjQsMy4zYzAsMS4yLTAuNSwyLjQtMS40LDMuM0wyOC4zLDQ4LjZDMjcuNCw0OS41LDI2LjIsNTAsMjUsNTAiIGlkPSJwYXRoMzg5MSIvPiYjeGE7PHBhdGggZmlsbD0iI0ZGRkZGRiIgZD0iTTI5LjczOCwxOC41ODRjLTEuMzk4LDEuMDY5LTMuMDQ0LDEuNTg5LTQuNjgsMS41ODljLTIuMzIsMC00LjYxNC0xLjA0Mi02LjEzMS0zLjAyNSAgYy0yLjU5LTMuMzgyLTEuOTUxLTguMjE5LDEuNDM3LTEwLjgxMWMxLjM5Ny0xLjA3NSwzLjA0Ni0xLjU4OCw0LjY3OS0xLjU4OGMyLjMyLDAsNC42MTUsMS4wNDIsNi4xMzEsMy4wMjYgIEMzMy43NjUsMTEuMTU4LDMzLjExOSwxNS45OTYsMjkuNzM4LDE4LjU4NCIgaWQ9InBhdGgzODkzIi8+JiN4YTs8cGF0aCBvcGFjaXR5PSIwLjE1IiBmaWxsPSIjRkZGRkZGIiBlbmFibGUtYmFja2dyb3VuZD0ibmV3ICAgICIgZD0iTTI4LjMsMS40QzI3LjQsMC41LDI2LjIsMCwyNSwwcy0yLjQsMC41LTMuMywxLjRMMS40LDIxLjcgIEMwLjUsMjIuNiwwLDIzLjgsMCwyNXMwLjUsMi40LDEuNCwzLjNsMTEuNSwxMS41TDM0LjYsNy43TDI4LjMsMS40eiIgaWQ9InBhdGgzODk1Ii8+JiN4YTs8cG9seWdvbiBmaWxsPSIjRkZGRkZGIiBwb2ludHM9IjI1LDQ1LjYgMzEuNiwzOSAyNi45LDM5IDI2LjksMTkuMTQ5IDIzLDE5LjE0OSAyMywzOSAxOC40LDM5ICIgaWQ9InBvbHlnb24zODk3Ii8+JiN4YTs8cG9seWdvbiBmaWxsPSIjRkZGRkZGIiBwb2ludHM9IjM5LjMzLDMzLjQ4IDM5LjMzLDI0LjE0NiAzNi4wNzcsMjcuMzk5IDI3LjYzMywxOC45NTUgMjQuODA1LDIxLjc4MyAzMy4yNDksMzAuMjI3IDI5Ljk5NiwzMy40OCAgICIgaWQ9InBvbHlnb24zODk5Ii8+JiN4YTs8cG9seWdvbiBmaWxsPSIjRkZGRkZGIiBwb2ludHM9IjEwLjY4NSwzMy41MTUgMjAuMDE4LDMzLjUxNSAxNi43NjYsMzAuMjYzIDI1LjQ0NywyMS41ODIgMjIuNjE4LDE4Ljc1MyAxMy45MzcsMjcuNDM0ICAgMTAuNjg1LDI0LjE4MiAiIGlkPSJwb2x5Z29uMzkwMSIvPiYjeGE7PHBhdGggZmlsbD0iIzU5QjREOSIgZD0iTTI5LjExNSwxNy43NzFjLTEuMjEyLDAuOTI3LTIuNjQsMS4zNzgtNC4wNTgsMS4zNzhjLTIuMDEyLDAtNC4wMDItMC45MDMtNS4zMTYtMi42MjMgIGMtMi4yNDYtMi45MzMtMS42OTItNy4xMjcsMS4yNDYtOS4zNzVjMS4yMTItMC45MzIsMi42NDEtMS4zNzcsNC4wNTctMS4zNzdjMi4wMTIsMCw0LjAwMiwwLjkwMyw1LjMxNiwyLjYyNCAgQzMyLjYwOCwxMS4zMzEsMzIuMDQ4LDE1LjUyNiwyOS4xMTUsMTcuNzcxIiBpZD0icGF0aDM5MDMiLz4mI3hhOzxwYXRoIGZpbGw9IiNGRkZGRkYiIGQ9Ik0yNy44ODYsMTMuNjM1YzAuNDg2LDAuNjM0LDEuMzg4LDAuNzQ4LDIuMDE4LDAuMjY5YzAuMDMzLTAuMDI1LDAuMDU4LTAuMDU2LDAuMDg4LTAuMDgzICBjMC42NDUsMC40NTQsMS4wOTIsMC43NTQsMS4zNDQsMC45MjVjMC4wNzUtMC4xOTMsMC4xMjYtMC4zNzksMC4xNzktMC41NzNjLTAuMjY2LTAuMTk4LTAuNjI3LTAuNDc2LTEuMTQ4LTAuODk4ICBjMC4xNzEtMC40NDksMC4xMTctMC45NzQtMC4xOTUtMS4zODRjLTAuNDQ3LTAuNTc4LTEuMjM4LTAuNzI1LTEuODU2LTAuMzY4Yy0wLjY4MS0wLjYxMS0xLjQzLTEuMzEyLTIuMjE5LTIuMDk2ICBjMi40NTItMS4zMTksNC4xOTQtMS4xMjYsNC4xOTQtMS4xMjZjLTAuMjkxLTAuMzcxLTAuNjE3LTAuNjk2LTAuOTY1LTAuOTg5Yy0xLjAzNC0wLjE2LTIuNjQtMC4xNDItNC40NzYsMC44MzRsLTAuMDAxLTAuMDAxaDAgIGMtMC42MTItMC42NC0xLjIzNC0xLjMyNy0xLjg2OC0yLjA2M2MtMC4zMDMsMC4wOTctMC42LDAuMjE3LTAuODg2LDAuMzZjMC40NjgsMC43NjYsMS4wOTgsMS41MzgsMS44MDcsMi4yOTJsMCwwICBjMC4wMDEsMC4wMDIsMC4wMDMsMC4wMDMsMC4wMDUsMC4wMDVjLTAuNTkyLDAuNDE0LTEuMjUsMC45NjctMS44NTgsMS42MDljLTAuMDc4LDAuMDgzLTAuMTUyLDAuMTY2LTAuMjI1LDAuMjQ5ICBjLTAuMzYzLTAuMDc2LTAuNzQ1LTAuMDU0LTEuMTAyLDAuMDc1Yy0wLjYwNi0xLjMwNy0wLjU1Ny0yLjM1Ny0wLjQ2MS0yLjg5OGMtMC4yNjMsMC4yNzYtMC41MDksMC41NjUtMC43MiwwLjg3NCAgYy0wLjE1OCwwLjY0Ni0wLjIwMywxLjU3OCwwLjI2NCwyLjcwMWMtMC41NCwwLjcwNy0wLjU2NiwxLjcwOS0wLjAwMSwyLjQ0OWMwLjA0NywwLjA2MSwwLjA5NywwLjExOCwwLjE1LDAuMTczICBjLTAuMjQ2LDAuODM5LTAuMzU3LDEuNjQ5LTAuMzkxLDIuMzQ0YzAuMDYzLDAuMDg2LDAuMDYzLDAuMTU2LDAuMTI2LDAuMjRjMC4zMjEsMC40MTEsMC43MjQsMC43NTgsMS4xMTMsMS4wNzIgIGMtMC4wNDgtMC43MzYsMC4wMDQtMS44MjEsMC40NTktMy4wNDNjMC4zMTQsMC4wMjQsMC42MzMtMC4wMjYsMC45MzItMC4xNTFjMC4xNzEsMC4xNTEsMC4zNSwwLjMwMywwLjU0MiwwLjQ1OCAgYzAuNjU2LDAuNTIsMS4zMTEsMC45MjQsMS45NDksMS4yNDJjLTAuMDMzLDAuMzI1LDAuMDQ4LDAuNjYyLDAuMjU5LDAuOTQxYzAuNDUxLDAuNTgyLDEuMjg2LDAuNjkxLDEuODY4LDAuMjQ2ICBjMC4xMjEtMC4wOTMsMC4yMTctMC4yMDUsMC4yOTYtMC4zMjVjMS4wNDEsMC4yMzIsMS45NSwwLjI3MywyLjYyNCwwLjI3M2MwLjEwMywwLDAuNTgyLTAuNjUyLDAuODU3LTEuMDU2ICBjLTAuNDEsMC4wODYtMS42MjgsMC4yNTMtMy4yOTEtMC4yMjVjLTAuMDQtMC4xODctMC4xMTctMC4zNjgtMC4yNC0wLjUzYy0wLjQyMi0wLjU1NC0xLjE5NS0wLjY3NC0xLjc3MS0wLjMwMyAgYy0wLjU3OC0wLjMxNC0xLjE4NC0wLjcwNy0xLjgwOC0xLjIwMWMtMC4xMjYtMC4xLTAuMjQ3LTAuMTk5LTAuMzY0LTAuMjk5YzAuMzgyLTAuNjAxLDAuNDIyLTEuMzcyLDAuMDg1LTIuMDIgIGMwLjA3Ny0wLjA3NywwLjE1Mi0wLjE1MywwLjIzMy0wLjIyOWMwLjYxOC0wLjU3OCwxLjItMS4wNCwxLjc0NC0xLjQxMWMtMC4wMjItMC4wMi0wLjA0Mi0wLjA0Mi0wLjA2My0wLjA2MiAgYzAuMDIyLDAuMDIsMC4wNDIsMC4wNDEsMC4wNjQsMC4wNjFjMCwwLDAsMC0wLjAwMSwwYzAuODM1LDAuNzcyLDEuNzIsMS41MDQsMi41NTksMi4xNTggIEMyNy41MTQsMTIuNjIxLDI3LjU0OSwxMy4xOTQsMjcuODg2LDEzLjYzNXoiIGlkPSJwYXRoMzkwNSIvPiYjeGE7PC9zdmc+" vertex="1" parent="1">
          <mxGeometry x="480" y="220" width="50" height="50" as="geometry" />
        </mxCell>
      </root>
    </mxGraphModel>
  </diagram>
</mxfile>
